<svg id="visual" viewBox="0 0 960 540" width="960" height="540" xmlns="http://www.w3.org/2000/svg" xmlns:xlink="http://www.w3.org/1999/xlink" version="1.1"><rect x="0" y="0" width="960" height="540" fill="#fceeff"></rect><defs><linearGradient id="grad1_0" x1="43.8%" y1="100%" x2="100%" y2="0%"><stop offset="14.444444444444446%" stop-color="#4b0059" stop-opacity="1"></stop><stop offset="85.55555555555554%" stop-color="#4b0059" stop-opacity="1"></stop></linearGradient></defs><defs><linearGradient id="grad1_1" x1="43.8%" y1="100%" x2="100%" y2="0%"><stop offset="14.444444444444446%" stop-color="#4b0059" stop-opacity="1"></stop><stop offset="85.55555555555554%" stop-color="#85538e" stop-opacity="1"></stop></linearGradient></defs><defs><linearGradient id="grad1_2" x1="43.8%" y1="100%" x2="100%" y2="0%"><stop offset="14.444444444444446%" stop-color="#bf9ec6" stop-opacity="1"></stop><stop offset="85.55555555555554%" stop-color="#85538e" stop-opacity="1"></stop></linearGradient></defs><defs><linearGradient id="grad1_3" x1="43.8%" y1="100%" x2="100%" y2="0%"><stop offset="14.444444444444446%" stop-color="#bf9ec6" stop-opacity="1"></stop><stop offset="85.55555555555554%" stop-color="#fceeff" stop-opacity="1"></stop></linearGradient></defs><defs><linearGradient id="grad2_0" x1="0%" y1="100%" x2="56.3%" y2="0%"><stop offset="14.444444444444446%" stop-color="#4b0059" stop-opacity="1"></stop><stop offset="85.55555555555554%" stop-color="#4b0059" stop-opacity="1"></stop></linearGradient></defs><defs><linearGradient id="grad2_1" x1="0%" y1="100%" x2="56.3%" y2="0%"><stop offset="14.444444444444446%" stop-color="#85538e" stop-opacity="1"></stop><stop offset="85.55555555555554%" stop-color="#4b0059" stop-opacity="1"></stop></linearGradient></defs><defs><linearGradient id="grad2_2" x1="0%" y1="100%" x2="56.3%" y2="0%"><stop offset="14.444444444444446%" stop-color="#85538e" stop-opacity="1"></stop><stop offset="85.55555555555554%" stop-color="#bf9ec6" stop-opacity="1"></stop></linearGradient></defs><defs><linearGradient id="grad2_3" x1="0%" y1="100%" x2="56.3%" y2="0%"><stop offset="14.444444444444446%" stop-color="#fceeff" stop-opacity="1"></stop><stop offset="85.55555555555554%" stop-color="#bf9ec6" stop-opacity="1"></stop></linearGradient></defs><g transform="translate(960, 540)"><path d="M-459 0C-425.7 -52.9 -392.4 -105.8 -363.1 -150.4C-333.8 -195 -308.5 -231.4 -280.7 -280.7C-253 -330 -222.8 -392.2 -175.7 -424.1C-128.5 -455.9 -64.2 -457.5 0 -459L0 0Z" fill="#ddc6e2"></path><path d="M-344.2 0C-319.3 -39.7 -294.3 -79.3 -272.3 -112.8C-250.3 -146.3 -231.3 -173.6 -210.5 -210.5C-189.7 -247.5 -167.1 -294.1 -131.7 -318C-96.3 -341.9 -48.2 -343.1 0 -344.2L0 0Z" fill="#a278aa"></path><path d="M-229.5 0C-212.8 -26.4 -196.2 -52.9 -181.5 -75.2C-166.9 -97.5 -154.2 -115.7 -140.4 -140.4C-126.5 -165 -111.4 -196.1 -87.8 -212C-64.2 -228 -32.1 -228.7 0 -229.5L0 0Z" fill="#682e73"></path><path d="M-114.7 0C-106.4 -13.2 -98.1 -26.4 -90.8 -37.6C-83.4 -48.8 -77.1 -57.9 -70.2 -70.2C-63.2 -82.5 -55.7 -98 -43.9 -106C-32.1 -114 -16.1 -114.4 0 -114.7L0 0Z" fill="#4b0059"></path></g><g transform="translate(0, 0)"><path d="M459 0C455.9 63.2 452.8 126.5 424.1 175.7C395.3 224.8 340.8 260 294.2 294.2C247.5 328.4 208.8 361.6 161.1 389C113.4 416.3 56.7 437.6 0 459L0 0Z" fill="#ddc6e2"></path><path d="M344.3 0C341.9 47.4 339.6 94.9 318 131.7C296.5 168.6 255.6 195 220.6 220.6C185.7 246.3 156.6 271.2 120.8 291.7C85 312.2 42.5 328.2 0 344.3L0 0Z" fill="#a278aa"></path><path d="M229.5 0C228 31.6 226.4 63.2 212 87.8C197.6 112.4 170.4 130 147.1 147.1C123.8 164.2 104.4 180.8 80.6 194.5C56.7 208.1 28.3 218.8 0 229.5L0 0Z" fill="#682e73"></path><path d="M114.8 0C114 15.8 113.2 31.6 106 43.9C98.8 56.2 85.2 65 73.5 73.5C61.9 82.1 52.2 90.4 40.3 97.2C28.3 104.1 14.2 109.4 0 114.8L0 0Z" fill="#4b0059"></path></g></svg>