<svg id="visual" viewBox="0 0 900 600" width="900" height="600" xmlns="http://www.w3.org/2000/svg" xmlns:xlink="http://www.w3.org/1999/xlink" version="1.1"><rect x="0" y="0" width="900" height="600" fill="#20173b"></rect><defs><linearGradient id="grad1_0" x1="33.3%" y1="100%" x2="100%" y2="0%"><stop offset="20%" stop-color="#4b0059" stop-opacity="1"></stop><stop offset="80%" stop-color="#4b0059" stop-opacity="1"></stop></linearGradient></defs><defs><linearGradient id="grad1_1" x1="33.3%" y1="100%" x2="100%" y2="0%"><stop offset="20%" stop-color="#4b0059" stop-opacity="1"></stop><stop offset="80%" stop-color="#32134c" stop-opacity="1"></stop></linearGradient></defs><defs><linearGradient id="grad1_2" x1="33.3%" y1="100%" x2="100%" y2="0%"><stop offset="20%" stop-color="#20173b" stop-opacity="1"></stop><stop offset="80%" stop-color="#32134c" stop-opacity="1"></stop></linearGradient></defs><defs><linearGradient id="grad2_0" x1="0%" y1="100%" x2="66.7%" y2="0%"><stop offset="20%" stop-color="#4b0059" stop-opacity="1"></stop><stop offset="80%" stop-color="#4b0059" stop-opacity="1"></stop></linearGradient></defs><defs><linearGradient id="grad2_1" x1="0%" y1="100%" x2="66.7%" y2="0%"><stop offset="20%" stop-color="#32134c" stop-opacity="1"></stop><stop offset="80%" stop-color="#4b0059" stop-opacity="1"></stop></linearGradient></defs><defs><linearGradient id="grad2_2" x1="0%" y1="100%" x2="66.7%" y2="0%"><stop offset="20%" stop-color="#32134c" stop-opacity="1"></stop><stop offset="80%" stop-color="#20173b" stop-opacity="1"></stop></linearGradient></defs><g transform="translate(900, 600)"><path d="M-432.7 0C-391.7 -40.6 -350.8 -81.2 -337.2 -139.7C-323.6 -198.2 -337.3 -274.6 -305.9 -305.9C-274.6 -337.3 -198.2 -323.6 -139.7 -337.2C-81.2 -350.8 -40.6 -391.7 0 -432.7L0 0Z" fill="#281644"></path><path d="M-288.4 0C-261.2 -27.1 -233.9 -54.1 -224.8 -93.1C-215.7 -132.1 -224.9 -183.1 -204 -204C-183.1 -224.9 -132.1 -215.7 -93.1 -224.8C-54.1 -233.9 -27.1 -261.2 0 -288.4L0 0Z" fill="#3e0d53"></path><path d="M-144.2 0C-130.6 -13.5 -116.9 -27.1 -112.4 -46.6C-107.9 -66.1 -112.4 -91.5 -102 -102C-91.5 -112.4 -66.1 -107.9 -46.6 -112.4C-27.1 -116.9 -13.5 -130.6 0 -144.2L0 0Z" fill="#4b0059"></path></g><g transform="translate(0, 0)"><path d="M432.7 0C407.7 50 382.8 100.1 362.2 150C341.5 199.9 325.3 249.8 294.2 294.2C263 338.6 217.1 377.5 165.6 399.7C114.1 421.9 57 427.3 0 432.7L0 0Z" fill="#281644"></path><path d="M288.4 0C271.8 33.4 255.2 66.7 241.4 100C227.7 133.3 216.9 166.5 196.1 196.1C175.4 225.7 144.7 251.7 110.4 266.5C76 281.3 38 284.9 0 288.4L0 0Z" fill="#3e0d53"></path><path d="M144.2 0C135.9 16.7 127.6 33.4 120.7 50C113.8 66.6 108.4 83.3 98.1 98.1C87.7 112.9 72.4 125.8 55.2 133.2C38 140.6 19 142.4 0 144.2L0 0Z" fill="#4b0059"></path></g></svg>